<?xml version="1.0" encoding="utf-8"?>
<!-- Generator: Adobe Illustrator 18.0.0, SVG Export Plug-In . SVG Version: 6.00 Build 0)  -->
<!DOCTYPE svg PUBLIC "-//W3C//DTD SVG 1.1//EN" "http://www.w3.org/Graphics/SVG/1.1/DTD/svg11.dtd">
<svg version="1.1" xmlns="http://www.w3.org/2000/svg" xmlns:xlink="http://www.w3.org/1999/xlink" x="0px" y="0px"
	 viewBox="0 0 31.7 31.7" enable-background="new 0 0 31.7 31.7" xml:space="preserve">
<g id="Calque_2" display="none">
	<rect x="-1" y="-0.8" display="inline" stroke="#FFFFFF" stroke-miterlimit="10" width="34.3" height="33.6"/>
</g>
<g id="Capa_1">
	<g>
		<g>
			<polygon fill="#FFFFFF" points="6.5,21.2 3.8,29 8.7,27.3 11.5,31.7 14.3,23.9 11.7,21.6 			"/>
			<polygon fill="#FFFFFF" points="25.2,21.2 20.1,21.6 17.4,23.9 20.2,31.7 23,27.3 27.9,29 			"/>
			<path fill="#FFFFFF" d="M24,19.6l0.3-4.6l3-3.5l-3-3.5L24,3.4L19.3,3l-3.5-3l-3.5,3L7.7,3.4L7.4,8l-3,3.5l3,3.5l0.3,4.6l4.6,0.3
				l3.5,3l3.5-3L24,19.6z M15.8,17.8c-3.5,0-6.4-2.9-6.4-6.4S12.2,5,15.8,5s6.4,2.9,6.4,6.4C22.2,15,19.3,17.8,15.8,17.8z"/>
			<g>
				<polygon fill="#FFFFFF" points="11.3,8.7 11.6,10 12.9,9.3 12.9,9.3 12.9,15 14.6,15 14.6,7.8 13.2,7.8 				"/>
				<path fill="#FFFFFF" d="M20.4,11.3c0,0.6,0,1.1-0.1,1.6c-0.1,0.4-0.2,0.8-0.4,1.1c-0.2,0.3-0.4,0.5-0.7,0.7S18.5,15,18,15
					c-0.4,0-0.8-0.1-1.1-0.3c-0.3-0.2-0.6-0.4-0.7-0.7c-0.2-0.3-0.3-0.7-0.4-1.1c-0.1-0.4-0.1-1-0.1-1.5c0-0.6,0-1.1,0.1-1.6
					C15.8,9.4,16,9,16.2,8.7c0.2-0.3,0.4-0.5,0.8-0.7c0.3-0.1,0.7-0.3,1.1-0.3c0.5,0,0.8,0.1,1.1,0.3c0.3,0.2,0.5,0.4,0.7,0.7
					c0.2,0.3,0.3,0.7,0.4,1.1C20.4,10.3,20.4,10.8,20.4,11.3z M18.9,11.3c0-0.8-0.1-1.4-0.2-1.8C18.5,9.2,18.3,9,18,9
					c-0.3,0-0.5,0.2-0.6,0.5c-0.1,0.3-0.2,0.9-0.2,1.8c0,0.8,0.1,1.4,0.2,1.8c0.1,0.3,0.3,0.5,0.6,0.5s0.5-0.2,0.6-0.5
					C18.8,12.8,18.9,12.2,18.9,11.3z"/>
			</g>
		</g>
	</g>
</g>
</svg>
