<?xml version="1.0" encoding="iso-8859-1"?>
<!-- Generator: Adobe Illustrator 18.1.1, SVG Export Plug-In . SVG Version: 6.00 Build 0)  -->
<svg version="1.1" id="Capa_1" xmlns="http://www.w3.org/2000/svg" xmlns:xlink="http://www.w3.org/1999/xlink" x="0px" y="0px"
	 viewBox="0 0 18.562 18.562" style="enable-background:new 0 0 18.562 18.562;" xml:space="preserve">
<g>
	<g>
		<path style="fill:#010002;" d="M17.338,17.131l-1.527,1.008c-0.983,0.677-5.172,1.438-10.871-5.466
			C-0.554,6.026,1.017,2.34,1.754,1.49l1.268-1.318c0.299-0.255,0.75-0.225,1.007,0.083L7.364,4.2l0.002,0.002
			c0.244,0.289,0.236,0.739-0.085,1.01v0.003L5.803,6.281c-0.585,0.58-0.075,1.493,0.523,2.375l2.844,3.358
			c1.323,1.277,2.048,1.867,2.681,1.445l1.229-1.371c0.301-0.253,0.75-0.222,1.007,0.084l3.337,3.945v0.002
			C17.667,16.409,17.658,16.858,17.338,17.131z"/>
	</g>
</g>
<g>
</g>
<g>
</g>
<g>
</g>
<g>
</g>
<g>
</g>
<g>
</g>
<g>
</g>
<g>
</g>
<g>
</g>
<g>
</g>
<g>
</g>
<g>
</g>
<g>
</g>
<g>
</g>
<g>
</g>
</svg>
