<?xml version="1.0" encoding="utf-8"?>
<!-- Generator: Adobe Illustrator 18.0.0, SVG Export Plug-In . SVG Version: 6.00 Build 0)  -->
<!DOCTYPE svg PUBLIC "-//W3C//DTD SVG 1.1//EN" "http://www.w3.org/Graphics/SVG/1.1/DTD/svg11.dtd">
<svg version="1.1" xmlns="http://www.w3.org/2000/svg" xmlns:xlink="http://www.w3.org/1999/xlink" x="0px" y="0px"
	 viewBox="0 0 222.6 122" enable-background="new 0 0 222.6 122" xml:space="preserve">
<g id="Calque_2" display="none">
	<rect x="-95.5" y="-77.5" display="inline" fill="#4C4C4C" width="429.5" height="300"/>
</g>
<g id="Calque_1">
	<line fill="#FFFFFF" stroke="#FFFFFF" stroke-width="3" stroke-miterlimit="10" x1="36.6" y1="119" x2="222.3" y2="99"/>
	<line fill="#F18854" stroke="#F18854" stroke-width="3" stroke-miterlimit="10" x1="19.7" y1="102.5" x2="203.1" y2="109.9"/>
	<g>
		<path fill="#FFFFFF" d="M68.2,84.5c-4.3,4.3-9.8,7-16.1,7c-12.7,0-22.8-10.7-22.8-24s10.1-24.2,22.8-24.2
			C64.7,43.3,75,54.2,75,67.5H34.2c0,10.6,7.9,19.2,17.9,19.2c5,0,9.4-2.1,12.7-5.5L68.2,84.5z M34.6,62.6h34.9
			c-2.1-8.3-9-14.4-17.4-14.4S36.7,54.3,34.6,62.6z"/>
		<path fill="#FFFFFF" d="M81.1,68.5V0H86v52.6c4.3-5.7,10.7-9.3,18.1-9.3c12.7,0,22.8,10.9,22.8,24.2s-10.1,24-22.8,24
			c-7.3,0-13.8-3.4-18.1-9.1C81.1,75.6,81.1,68.5,81.1,68.5 M104.1,48.2c-11.6,0-18.1,10-18.1,19.9c0,9.4,6.1,18.5,18.1,18.5
			c10,0,17.9-8.5,17.9-19.2S114.1,48.2,104.1,48.2z"/>
		<path fill="#F18854" d="M136.7,23.2c2.1,0,3.7,1.6,3.7,3.7c0,2.1-1.6,3.7-3.7,3.7c-2.1,0-3.7-1.6-3.7-3.7
			C133.1,24.8,134.7,23.2,136.7,23.2z M134.3,43.3h4.9v48.2h-4.9V43.3z"/>
		<path fill="#FFFFFF" d="M152.4,52.4c4.3-5.7,10.8-9.1,18.2-9.1c12.7,0,22.8,10.7,22.8,24s-10.1,24.2-22.8,24.2
			c-7.3,0-13.8-3.5-18.1-9.3V122h-4.9V66.8C147.6,64,148.1,58.1,152.4,52.4z M170.6,48.2c-12,0-18.1,9.3-18.1,18.7
			c0,9.8,6.5,19.8,18.1,19.8c10,0,17.9-8.7,17.9-19.3C188.5,56.7,180.6,48.2,170.6,48.2z"/>
	</g>
</g>
</svg>
